<svg xmlns="http://www.w3.org/2000/svg" width="20" height="21.988" viewBox="0 0 20 21.988"><path d="M9.072,2.488A3.477,3.477,0,0,0,7.7,5.366c.071.865.247,1.992.247,1.992s-.348.189-.348.949c.121,1.908.759,1.085.89,1.921.315,2.015,1.037,1.657,1.037,2.757,0,1.832-.756,2.689-3.115,3.7S1.6,18.992,1.6,21.214v1.111h20V21.214c0-2.222-2.441-3.506-4.809-4.524s-3.113-1.871-3.113-3.7c0-1.1.719-.741,1.035-2.757.132-.837.769-.013.892-1.921,0-.76-.349-.949-.349-.949s.176-1.126.246-1.992a3.434,3.434,0,0,0-2.556-3.44c-.37-.378-.62-.979.518-1.582C10.977.228,10.4,1.53,9.073,2.488Z" transform="translate(-1.6 -0.337)" fill="#585858"/></svg>