<svg xmlns="http://www.w3.org/2000/svg" width="1200" height="300" viewBox="0 0 1200 300"><g transform="translate(2365 864)"><rect width="1200" height="300" transform="translate(-2365 -864)" fill="#ebf5f6"/><text transform="translate(-2265 -721)" fill="#191847" font-size="39" font-family="Arial-BoldMT, Arial" font-weight="700"><tspan x="0" y="0">The Best Products</tspan><tspan font-family="SegoeUI, Segoe UI" font-weight="400"><tspan x="0" y="40">in Every Category</tspan></tspan></text><g transform="translate(46 8)"><g transform="translate(-1643 -827)" opacity="0.346"><path d="M-472.856,120.487C-468.037,66.634-209.474-37.307-161.473,13.7s1.854,146.737-98.739,171.251S-477.675,174.34-472.856,120.487Z" transform="translate(473 0)" fill="#f2f2f2"/></g><g transform="translate(-1616 -792)"><g transform="translate(6)"><g transform="translate(37)"><g transform="translate(27.711 15.835)"><path d="M0,38,4.328,17.954A14.052,14.052,0,0,1,.553,7.821C1.34-3.319,16.945-.868,19.98,4.755s2.675,19.884-1.248,20.889c-1.565.4-4.9-.581-8.289-2.613L12.572,38Z" transform="translate(0.289 0.165)" fill="#b28b67"/></g><path d="M37.837,5.807a2.7,2.7,0,0,0-1.89-1.918,2.488,2.488,0,0,0-.7-.069c-.084,0-.107.028-.147-.031a.77.77,0,0,1-.042-.2,3.792,3.792,0,0,0-.141-.469A3.827,3.827,0,0,0,34,1.747,4.641,4.641,0,0,0,31.211.427a4.062,4.062,0,0,0-1.676.229A6.635,6.635,0,0,0,28.721,1c-.079.04-.337.235-.417.222s-.265-.233-.336-.288A4.925,4.925,0,0,0,24.889,0a5.631,5.631,0,0,0-3.478.83,6.958,6.958,0,0,0-.628.522c-.1.1-.206.2-.3.3q-.088.1-.17.2c-.093.113-.078.15-.208.071a2.584,2.584,0,0,0-1.66-.374,3.713,3.713,0,0,0-1,.283c-.109.047-.361.232-.477.234s-.363-.17-.482-.214a3.948,3.948,0,0,0-2-.186,5.17,5.17,0,0,0-1.964.773,2.641,2.641,0,0,0-.728.662c-.086.118-.163.243-.26.353-.057.064-.169.13-.2.211a4.311,4.311,0,0,0-.832-.368,2.049,2.049,0,0,0-1.171.045A4.657,4.657,0,0,0,7.476,4.656a5.248,5.248,0,0,0-.684.919q-.139.237-.256.486a1.809,1.809,0,0,1-.112.253c-.064.093-.107.1-.223.136A3.6,3.6,0,0,0,4.666,7.479a3.541,3.541,0,0,0-.794,1.686.86.86,0,0,1-.032.207c-.029.027-.148.015-.192.02a4.045,4.045,0,0,0-.461.081,3.8,3.8,0,0,0-.811.292A4.239,4.239,0,0,0,.3,12.247a5.039,5.039,0,0,0,.079,3.447,3.369,3.369,0,0,0,.256.5c.061.1.081.1.041.2S.55,16.628.5,16.74A4.869,4.869,0,0,0,.13,17.892a5.41,5.41,0,0,0-.063,1.992,2.878,2.878,0,0,0,.307.874,2.507,2.507,0,0,0,.269.391c.053.063.109.123.168.181a1.12,1.12,0,0,1,.106.1c.07.09.084.016.048.148a5.9,5.9,0,0,1-.234.545c-.072.185-.137.372-.2.561a8.283,8.283,0,0,0-.286,1.169,3.675,3.675,0,0,0,.259,2.271,2.272,2.272,0,0,0,.642.765,2.383,2.383,0,0,0,.422.256c.076.036.174.052.209.126s-.018.238-.031.327a5.451,5.451,0,0,0,.064,2.346A3.242,3.242,0,0,0,3.1,31.67a3.991,3.991,0,0,0,3.993.113,4.192,4.192,0,0,0,.891-.613c.684.921,2.091.892,3.09.63a4.44,4.44,0,0,0,2.82-2.332,1.878,1.878,0,0,0,2.985-.393,2.491,2.491,0,0,0,.252-.819c.021-.149.007-.3.023-.448a2.316,2.316,0,0,1,.218-.555,3.065,3.065,0,0,0,.232-1.106,5.619,5.619,0,0,0-.042-.594,2.042,2.042,0,0,1,.061-.522,2.382,2.382,0,0,1-1.009-.126,1.993,1.993,0,0,1-.78-.549,4.558,4.558,0,0,1-.982-1.836c-.444-1.455-.262-3.2,1.2-4a7.525,7.525,0,0,1,3.532-.187c.853.193,1.82,2.077,1.867,2.254.029.11.015.245.115.318.221.161.585-.118.748-.256a2.954,2.954,0,0,0,.656-.873,10.8,10.8,0,0,0,.9-2.208c.166-.588.273-1.2.49-1.768a2.7,2.7,0,0,1,1.087-1.4,9.567,9.567,0,0,1,1.87-.758,4.64,4.64,0,0,0,1.73-.951,2.392,2.392,0,0,0,.3-.331c.068-.095.135-.277.239-.337.161-.094.4.15.535.238a6.185,6.185,0,0,1,1.721,1.71,10.642,10.642,0,0,1,1.143,2.036,5.889,5.889,0,0,0,.769,1.7,3.24,3.24,0,0,0,1.934.147,2.444,2.444,0,0,0,1.055-.914,1.421,1.421,0,0,0,.12-.93c-.037-.188-.113-.363-.154-.547a1.707,1.707,0,0,0-.142-.443,1.092,1.092,0,0,0-.681-.543,3.2,3.2,0,0,0,.735-1,4.285,4.285,0,0,0,.381-1.3,1.579,1.579,0,0,0-.211-1.013,2.664,2.664,0,0,0-.864-.718,5.622,5.622,0,0,0,1.2-1.311A4.1,4.1,0,0,0,37.837,5.807Z" transform="translate(15.597 7.285)" fill="#191847"/></g><g transform="translate(0 97)"><g transform="translate(0 22)"><path d="M61,64H16A16,16,0,0,1,0,48V16A16,16,0,0,1,16,0H61A16,16,0,0,1,77,16V48A16,16,0,0,1,61,64ZM18.667,14.451a4.005,4.005,0,0,0-4,4v27.1a4.005,4.005,0,0,0,4,4H58.334a4,4,0,0,0,4-4v-27.1a4,4,0,0,0-4-4Z" transform="translate(22)" fill="#c5cfd6"/></g><path d="M65.806,33.518C62.5,21.91,59.976,11.7,59.34,7.881c-1.518-9.1,11.678-9.626,13.422-5.105C75.4,9.618,80.011,32.1,85.549,66.054L79.219,67.9C72.558,53.146,67.74,40.3,65.806,33.518ZM1.95,21.593c6.112-2.418,27.516-9.985,37.838-12.125,2.967-.615,5.842-1.187,8.545-1.7,8.035-1.535,12.2,12.972,4.459,14.086C33.52,24.627,6.2,27.494,3.862,27.816a2.977,2.977,0,0,1-.4.028C.389,27.844-1.732,23.05,1.95,21.593Z" transform="translate(55.941 16.738)" fill="#b28b67"/><path d="M33.149,22.234a6.768,6.768,0,0,1-.09-1.724L0,3.667V0H3.931S51.907,12.235,52.962,15.682c.007.024.014.049.02.073l.048.065c6.338,8.725,10.135,51.319,11.381,54.508L52.265,72.142C47.619,54.9,32.754,42.887,33.149,22.234Z" transform="translate(76.146)" fill="#ffb000"/><path d="M16.157,33.942l9.985-3.428c-3.024-.606-5.811-1.147-8.194-1.565C2.552,26.245-1.937,18,.717,0H29.085C33.719,1.332,57.8,11.44,70.3,16.816c8.27,3.558,5.663,16.385.979,19.723a.458.458,0,0,1-.26.406c-17.325,7.186-32.161,6.837-41.9,6.489-4.424-.158-7.8-.317-9.876.23Z" transform="translate(52.75)" fill="#ffb000"/><g transform="matrix(0.438, 0.899, -0.899, 0.438, 71.24, 29.739)"><path d="M4.474,5.033A2,2,0,0,0,1.908,6.381L0,13.106A64.242,64.242,0,0,0,.9,21H57.3s2.2-7.268-2.538-7.848-7.87-1.047-7.87-1.047L20.68.419a1,1,0,0,0-1.332.532L17.663,5.039s-4.385,2.046-7.127,2.046Z" transform="translate(1 19)" fill="#e4e4e4"/></g><g transform="translate(131 69)"><path d="M2.326,2.778a1.04,1.04,0,0,0-1.334.7L0,6.979a33.455,33.455,0,0,0,.469,4.108H29.792S30.935,7.3,28.473,7s-4.092-.545-4.092-.545L10.752.377a.52.52,0,0,0-.692.277L9.183,2.781A11.776,11.776,0,0,1,5.478,3.846Z" transform="translate(0.52 9.727)" fill="#e4e4e4"/></g></g><g transform="translate(22.762 43)"><path d="M.638,46.765c-.58-.358-1.216-1.707.32-2.76,3.826-2.625,9.338-7.22,10.083-8.733,1.524-3.093,6.712-33.244,6.712-33.244l10.865.043s-10.063,32.512-10.865,34.5c-1.2,2.984,1.343,7.529,2.431,9.971-1.716.769-2.513-.213-3.386-1.194-.93-1.046-1.947-2.091-4.255-1.017-2.953,1.375-5.4,3.558-8.306,3.558A6.749,6.749,0,0,1,.638,46.765Zm92.91-29.257L78.232,8.471,83.124,0,97.852,14.38a44.63,44.63,0,0,1,10.533,6.06c.616.743,1.286,2.167-1.61,1.53s-5.971-1.177-6.515-.235,1.059,2.387.053,3.621A.38.38,0,0,1,100,25.5Q98.619,25.5,93.547,17.508Z" transform="translate(0 46.375)" fill="#b28b67"/><path d="M0,1.161,4.411,0Q18.507,27.906,49.4,49.017L36.421,67.941C15.247,47.189,1.38,25.079,0,1.161Z" transform="matrix(0.996, 0.087, -0.087, 0.996, 48.73, 1.618)" fill="#ff6500"/><path d="M0,59.32H40.033S26.121,25.465,26.121,1.8L14.045,0C4.554,15.277,1.874,34.085,0,59.32Z" transform="translate(29.03 0)" fill="#dde3e9"/><path d="M0,76.492C4.378,27.056,31.976,0,31.976,0l.01.009,0-.009h.788c1.415.049,4.31.176,4.31.176l2.918,8.347c.464,15.263,5.408,61.52,5.408,61.52h-26.2q.067,3.181.3,6.449Z" transform="translate(10.834)" fill="#ff6500"/><path d="M7.333,25.756H.032A133.054,133.054,0,0,1,2.007,0,140.041,140.041,0,0,0,3.769,14.406c.951,5.156,2.15,8.974,3.563,11.35Z" transform="translate(30.016 44.491)" fill="rgba(0,0,0,0.1)"/><path d="M0,6.021,12.94,0V6.021Z" transform="translate(35.847 48.096)" fill="rgba(255,255,255,0.2)"/></g></g></g><g transform="translate(-1632 -835)"><circle cx="29.5" cy="29.5" r="29.5" fill="#f2f2f2"/><ellipse cx="1.5" cy="2" rx="1.5" ry="2" transform="translate(28 4)" fill="rgba(0,0,0,0.1)"/><ellipse cx="2" cy="1.5" rx="2" ry="1.5" transform="translate(4 28)" fill="rgba(0,0,0,0.1)"/><circle cx="1.5" cy="1.5" r="1.5" transform="translate(51 28)" fill="rgba(0,0,0,0.1)"/><circle cx="1.5" cy="1.5" r="1.5" transform="translate(28 51)" fill="rgba(0,0,0,0.1)"/><path d="M1.112,0,2.224,19.463H0Z" transform="translate(28.361 9.454)" fill="#afb9c5"/><path d="M1.112,0,2.224,13.346H0Z" transform="translate(40.102 38.529) rotate(135)" fill="#afb9c5"/><circle cx="2.5" cy="2.5" r="2.5" transform="translate(27 27)" fill="#c5cfd6"/></g><g transform="translate(-1455 -708.049)"><g transform="translate(9.572 1)"><path d="M10.1.072a7.039,7.039,0,0,1,3.573.376c2.357,1,3.028,3.786,3,6.05-.035,2.436-.552,5.1,1.3,7.061.852.9,1.911,1.593,2.747,2.512a11.876,11.876,0,0,1,2.113,3.313,9.719,9.719,0,0,1,.549,7.149c-.767,2.047-2.7,3.9-2.281,6.223.435,2.429,2.884,4.285,4.414,6.094A14.224,14.224,0,0,1,29.1,46.2a9.645,9.645,0,0,1-2.587,7.119A18.238,18.238,0,0,1,12.71,59.1C10.5,59.091,8,58.991,6.091,57.8a3.647,3.647,0,0,1-1.251-1.351,4.406,4.406,0,0,0-1.209-1.21,7.179,7.179,0,0,1-2.3-3.077C-.561,47.491.949,41.708,3.592,37.557a3.807,3.807,0,0,0,.835-3.1,11.966,11.966,0,0,0-1.788-3.379A27.184,27.184,0,0,1,.645,27.92a7.16,7.16,0,0,1-.617-3.7,12.584,12.584,0,0,1,2.71-6.6c1.425-1.875,3.1-3.669,3.1-6.127,0-2.6-1.737-4.921-1-7.568A5.045,5.045,0,0,1,6.762,1.046,7.818,7.818,0,0,1,10.1.072Z" transform="translate(0 0)" fill="#dde3e9"/><path d="M.577.49A.6.6,0,0,1,1.341.021c.43.12.422.522.41.88A11.824,11.824,0,0,0,2.14,4.137a57.56,57.56,0,0,0,2.37,6.4,11.641,11.641,0,0,1,.71,6.582c-.445,2.125-1.143,4.195-1.6,6.322-.4,1.875-.828,3.853-.217,5.723.588,1.8,1.887,3.267,2.823,4.894A23.072,23.072,0,0,1,9.138,45a20.475,20.475,0,0,1-.409,5.339,5.583,5.583,0,0,1-1.423,3.067.987.987,0,0,1-1.415-.043c-.315-.446-.039-1.136.061-1.611A24.428,24.428,0,0,0,6.369,45.5a22.562,22.562,0,0,0-.976-5.976,20.224,20.224,0,0,0-2.546-4.973,15.882,15.882,0,0,1-2.641-5.1,11.993,11.993,0,0,1,.406-5.769c.519-2,1.2-3.935,1.9-5.877a10.313,10.313,0,0,0,.55-5.664C2.317,8.238.316,4.565.577.49Z" transform="translate(8.74 3.746)" fill="#c5cfd6"/></g><g transform="translate(13.317 5.162)"><path d="M37.827.658a8.945,8.945,0,0,1,3.992,2.3c2.236,2.41,1.55,6.052.316,8.713-1.329,2.863-3.342,5.741-2.207,9.027.522,1.51,1.4,2.878,1.894,4.4a15.345,15.345,0,0,1,.728,5.017c-.054,3.117-.883,6.443-3.134,8.74-1.982,2.022-5.223,3.2-5.964,6.173-.773,3.1,1.117,6.568,1.957,9.5.95,3.322,1.438,7.246.326,10.557a12.6,12.6,0,0,1-6.8,7.074c-6.082,2.809-13.143,2.377-19.241-.344-2.589-1.156-5.471-2.575-7.08-4.971A4.688,4.688,0,0,1,1.863,64.6a5.656,5.656,0,0,0-.779-2.061A9.255,9.255,0,0,1,.008,57.7c.256-6.511,5.083-12.565,10.378-16.1,1.255-.837,2.356-1.69,2.619-3.234a15.5,15.5,0,0,0-.311-4.927,35.128,35.128,0,0,1-.671-4.769,9.341,9.341,0,0,1,1.232-4.7,16.433,16.433,0,0,1,6.668-6.4c2.663-1.476,5.573-2.728,6.876-5.632,1.381-3.078.564-6.723,2.833-9.468A6.564,6.564,0,0,1,33.4.076,9.983,9.983,0,0,1,37.827.658Z" transform="translate(0 0)" fill="#dde3e9"/><path d="M21.5.337A.765.765,0,0,1,22.634.183c.44.368.22.839.019,1.257a15.49,15.49,0,0,0-1.24,4.036,75.4,75.4,0,0,0-.578,8.815,15.244,15.244,0,0,1-2.617,8.167c-1.633,2.283-3.533,4.368-5.18,6.649-1.451,2.01-2.986,4.128-3.251,6.664-.256,2.44.5,4.857.738,7.275A30.229,30.229,0,0,1,8.194,57.539,26.754,26.754,0,0,1,4.92,63.647c-.807,1.069-1.9,2.515-3.27,2.887A1.256,1.256,0,0,1,.017,65.74c-.135-.693.55-1.366.916-1.876a31.925,31.925,0,0,0,3.76-7.182,29.565,29.565,0,0,0,1.988-7.589,26.45,26.45,0,0,0-.372-7.224,20.767,20.767,0,0,1-.42-7.418,15.67,15.67,0,0,1,3.5-6.619c1.653-2.092,3.464-4.031,5.3-5.963A13.466,13.466,0,0,0,18.3,15.451C19.473,10.425,19.057,5.027,21.5.337Z" transform="translate(13.317 5.41)" fill="#c5cfd6"/></g><g transform="translate(0 24.306)"><path d="M5.538,0a7.92,7.92,0,0,1,6.1,3.145c1.74,2.16,2.091,4.8,2.8,7.372a6.581,6.581,0,0,0,2.015,3.423,9.75,9.75,0,0,0,3.34,1.337,7.8,7.8,0,0,1,4.9,4.907c.9,2.771-.053,5.566.11,8.374.15,2.579,2.693,4.188,4.739,5.425,2.017,1.219,3.835,2.36,4.443,4.736a13.548,13.548,0,0,1-.032,7.819c-1.486,4.143-5.834,5.968-10.036,6.251-3.813.257-8.608-.146-11.472-2.914A8.147,8.147,0,0,1,10.182,43.6a19.111,19.111,0,0,1,.7-4.238,19.12,19.12,0,0,0,.712-2.973c.266-2.7-2.228-3.217-4.351-3.958a10.355,10.355,0,0,1-5.9-5.2,9.9,9.9,0,0,1-1-7.437,8.683,8.683,0,0,1,1.975-3.475c.405-.441.977-.808,1.343-1.271a1.715,1.715,0,0,0,.15-1.5C3.262,11.208,1.566,9.271.959,6.937.411,4.83.735,2.207,2.662.848A5.031,5.031,0,0,1,5.538,0Z" transform="translate(0 0)" fill="#c5cfd6"/><path d="M1.389.267C3.989,3.036,4.7,6.794,4.9,10.436a26.425,26.425,0,0,0,.6,6.177A10.377,10.377,0,0,0,8.456,20.83c2.5,2.466,5.282,4.973,6.013,8.541.429,2.094.139,4.257.731,6.329a17.407,17.407,0,0,0,2.64,5.322c.928,1.28,2.138,2.26,3.153,3.454.31.364.753.9.625,1.415-.15.6-.917.793-1.461.7-1.269-.221-2.337-1.432-3.167-2.313a19.925,19.925,0,0,1-3.082-4.228,17.775,17.775,0,0,1-2-5.494c-.332-2.009-.167-4.1-.925-6.031-1.276-3.244-4.372-5.159-6.61-7.687C1.585,17.685,2,13.763,2.286,9.888c.157-2.13.313-4.535-.763-6.48C1.112,2.666.2,1.974.019,1.13-.142.357.741-.424,1.389.267Z" transform="translate(7.491 5.826)" fill="#afb9c5"/></g><path d="M0,0C0,15.839,2.585,24.138,16.231,24.138S32.462,15.839,32.462,0Z" transform="translate(11.653 75.911)" fill="#89c5cc"/></g><g transform="translate(-1669 -717)"><g transform="translate(9.671)"><rect width="16" height="5" rx="2" transform="translate(8.329 60)" fill="#afb9c5"/><path d="M6.613,32a6.614,6.614,0,0,1,0-13.227H9.7A83.563,83.563,0,0,0,12.748,0h1.926a72.3,72.3,0,0,0,3.045,18.773h2.668a6.614,6.614,0,1,1,0,13.227Z" transform="translate(3.329 30)" fill="#dde3e9"/><path d="M1.944.706S9.172,0,16.4,0,30.855.706,30.855.706L32.8,34.116s-8.2.785-16.4.785S0,34.116,0,34.116Z" fill="#c5cfd6"/></g><path d="M44.1,44V9.307H8.9V44H0V0H53V44Z" transform="translate(0 65)" fill="#f2f2f2"/></g></g></g></svg>