<svg xmlns="http://www.w3.org/2000/svg" width="500" height="300" viewBox="0 0 500 300"><g transform="translate(2371 514)"><rect width="500" height="300" transform="translate(-2371 -514)" fill="#ebf5f6"/><text transform="translate(-2227 -451)" font-size="24" font-family="Arial-BoldMT, Arial" font-weight="700"><tspan x="0" y="0">The Best Products</tspan><tspan font-family="SegoeUI, Segoe UI" font-weight="400"><tspan x="0" y="25">in Every Category</tspan></tspan></text><g transform="translate(-564 415)"><g transform="translate(-1652.654 -829.97)" opacity="0.346"><path d="M-472.909,75.75c3.03-33.857,165.587-99.2,195.765-67.136s1.166,92.253-62.077,107.664S-475.939,109.606-472.909,75.75Z" transform="translate(473 0)" fill="rgba(255,111,0,0.32)"/></g><g transform="translate(-1631.907 -807.966)"><g transform="translate(0)"><g transform="translate(22.907 -0.034)"><g transform="translate(17.603 10.059)"><path d="M0,24,2.754,11.339a8.837,8.837,0,0,1-2.4-6.4C.853-2.1,10.783-.548,12.714,3s1.7,12.559-.794,13.193c-1,.253-3.116-.367-5.275-1.65L8,24Z" transform="translate(0.397 -0.059)" fill="#b28b67"/></g><path d="M23.788,3.651A1.7,1.7,0,0,0,22.6,2.445a1.564,1.564,0,0,0-.437-.044c-.053,0-.067.017-.092-.02a.484.484,0,0,1-.026-.126,2.384,2.384,0,0,0-.089-.295,2.406,2.406,0,0,0-.58-.863,2.918,2.918,0,0,0-1.753-.83,2.554,2.554,0,0,0-1.054.144,4.171,4.171,0,0,0-.512.219c-.05.025-.212.148-.262.14S17.628.624,17.583.59A3.1,3.1,0,0,0,15.648,0a3.54,3.54,0,0,0-2.187.522,4.374,4.374,0,0,0-.395.328c-.066.061-.13.125-.191.191q-.055.06-.107.123c-.058.071-.049.095-.131.045A1.624,1.624,0,0,0,11.594.974a2.334,2.334,0,0,0-.63.178c-.068.029-.227.146-.3.147s-.228-.107-.3-.135A2.482,2.482,0,0,0,9.1,1.048a3.25,3.25,0,0,0-1.235.486,1.66,1.66,0,0,0-.458.416c-.054.074-.1.153-.163.222-.036.04-.106.082-.126.133A2.71,2.71,0,0,0,6.6,2.074a1.288,1.288,0,0,0-.736.028A2.928,2.928,0,0,0,4.7,2.928a3.3,3.3,0,0,0-.43.578q-.088.149-.161.306a1.137,1.137,0,0,1-.071.159c-.04.059-.067.06-.14.085a2.265,2.265,0,0,0-.965.646,2.226,2.226,0,0,0-.5,1.06.54.54,0,0,1-.02.13c-.018.017-.093.01-.121.013A2.543,2.543,0,0,0,2,5.956a2.392,2.392,0,0,0-.51.183A2.665,2.665,0,0,0,.188,7.7,3.168,3.168,0,0,0,.238,9.867a2.118,2.118,0,0,0,.161.317c.038.062.051.062.026.127s-.079.143-.112.213a3.061,3.061,0,0,0-.231.725A3.4,3.4,0,0,0,.042,12.5a1.809,1.809,0,0,0,.193.55A1.576,1.576,0,0,0,.4,13.3c.033.04.069.077.106.114a.7.7,0,0,1,.067.062c.044.056.053.01.03.093a3.71,3.71,0,0,1-.147.343c-.045.116-.086.234-.124.353A5.207,5.207,0,0,0,.157,15a2.31,2.31,0,0,0,.163,1.428,1.428,1.428,0,0,0,.4.481,1.5,1.5,0,0,0,.265.161c.048.023.11.033.131.079s-.011.149-.019.205a3.427,3.427,0,0,0,.04,1.475,2.038,2.038,0,0,0,.807,1.084,2.509,2.509,0,0,0,2.51.071,2.635,2.635,0,0,0,.56-.385,1.848,1.848,0,0,0,1.943.4,2.791,2.791,0,0,0,1.773-1.466,1.181,1.181,0,0,0,1.877-.247,1.566,1.566,0,0,0,.158-.515c.013-.094,0-.189.014-.282a1.456,1.456,0,0,1,.137-.349,1.927,1.927,0,0,0,.146-.7,3.532,3.532,0,0,0-.027-.373,1.284,1.284,0,0,1,.038-.328,1.5,1.5,0,0,1-.634-.079,1.253,1.253,0,0,1-.49-.345,2.865,2.865,0,0,1-.617-1.155,2.05,2.05,0,0,1,.754-2.513,4.731,4.731,0,0,1,2.221-.117c.536.121,1.144,1.306,1.174,1.417.019.069.009.154.072.2.139.1.368-.074.471-.161a1.857,1.857,0,0,0,.412-.549,6.793,6.793,0,0,0,.566-1.388c.1-.37.171-.751.308-1.112A1.7,1.7,0,0,1,16,9.052a6.014,6.014,0,0,1,1.176-.476,2.917,2.917,0,0,0,1.088-.6,1.5,1.5,0,0,0,.187-.208c.043-.06.085-.174.15-.212.1-.059.249.094.336.15a3.888,3.888,0,0,1,1.082,1.075,6.691,6.691,0,0,1,.718,1.28,3.7,3.7,0,0,0,.483,1.067,2.037,2.037,0,0,0,1.216.092,1.537,1.537,0,0,0,.663-.575.893.893,0,0,0,.075-.585c-.023-.118-.071-.228-.1-.344a1.073,1.073,0,0,0-.089-.279.686.686,0,0,0-.428-.341,2.011,2.011,0,0,0,.462-.627,2.694,2.694,0,0,0,.239-.817.993.993,0,0,0-.132-.637,1.675,1.675,0,0,0-.543-.451,3.534,3.534,0,0,0,.756-.824A2.574,2.574,0,0,0,23.788,3.651Z" transform="translate(9.806 4.58)" fill="#191847"/></g><g transform="translate(0 60.983)"><g transform="translate(-0.093 13.983)"><path d="M32,40H16A16,16,0,0,1,0,24V16A16,16,0,0,1,16,0H32A16,16,0,0,1,48,16v8A16,16,0,0,1,32,40ZM13.143,9.032a4,4,0,0,0-4,4V26.968a4,4,0,0,0,4,4H34.857a4,4,0,0,0,4-4V13.032a4,4,0,0,0-4-4Z" transform="translate(14)" fill="#c5cfd6"/></g><path d="M41.372,21.073c-2.082-7.3-3.665-13.719-4.065-16.118-.955-5.718,7.342-6.052,8.439-3.21,1.66,4.3,4.557,18.435,8.039,39.783L49.8,42.69A183.281,183.281,0,0,1,41.372,21.073Zm-40.146-7.5c3.843-1.52,17.3-6.278,23.789-7.623,1.865-.387,3.673-.746,5.372-1.071,5.051-.965,7.668,8.155,2.8,8.856C21.074,15.483,3.9,17.285,2.428,17.488a1.872,1.872,0,0,1-.254.017C.245,17.505-1.089,14.491,1.226,13.576Z" transform="translate(35.17 10.523)" fill="#b28b67"/><path d="M20.841,13.979a4.255,4.255,0,0,1-.056-1.084L0,2.305V0H2.472S32.634,7.692,33.3,9.859c0,.015.009.031.012.046l.03.041c3.985,5.485,6.372,32.264,7.155,34.269l-7.636,1.14C29.938,34.515,20.593,26.963,20.841,13.979Z" transform="translate(47.873)" fill="#ffb000"/><path d="M10.158,21.339l6.278-2.155c-1.9-.381-3.653-.721-5.151-.984C1.6,16.5-1.218,11.315.451,0H18.285C21.2.838,36.339,7.192,44.194,10.572c5.2,2.237,3.56,10.3.616,12.4a.288.288,0,0,1-.163.255c-10.892,4.518-20.219,4.3-26.344,4.079a26.155,26.155,0,0,0-6.209.145Z" transform="translate(33.164)" fill="#ffb000"/><g transform="matrix(0.438, 0.899, -0.899, 0.438, 44.788, 18.697)"><path d="M4.474,5.033A2,2,0,0,0,1.908,6.381L0,13.106A64.242,64.242,0,0,0,.9,21H57.3s2.2-7.268-2.538-7.848-7.87-1.047-7.87-1.047L20.68.419a1,1,0,0,0-1.332.532L17.663,5.039s-4.385,2.046-7.127,2.046Z" transform="translate(1 19)" fill="#e4e4e4"/></g><g transform="translate(81.907 42.983)"><path d="M1.462,1.87a.654.654,0,0,0-.838.441L0,4.511A21.033,21.033,0,0,0,.295,7.093H18.73s.719-2.378-.83-2.567-2.572-.342-2.572-.342L6.76.36a.327.327,0,0,0-.435.174L5.773,1.872a7.4,7.4,0,0,1-2.329.669Z" transform="translate(0.327 5.992)" fill="#e4e4e4"/></g></g><g transform="translate(14.31 27.034)"><path d="M.4,29.4c-.365-.225-.764-1.073.2-1.735,2.405-1.651,5.871-4.539,6.339-5.49.958-1.945,4.22-20.9,4.22-20.9l6.831.027s-6.326,20.44-6.831,21.691c-.756,1.876.844,4.733,1.529,6.269-1.079.483-1.58-.134-2.129-.75a1.939,1.939,0,0,0-2.675-.639c-1.857.865-3.392,2.237-5.222,2.237A4.243,4.243,0,0,1,.4,29.4ZM58.813,11.007,49.184,5.326,52.26,0l9.26,9.041a28.058,28.058,0,0,1,6.622,3.81c.387.467.808,1.362-1.012.962s-3.754-.74-4.1-.148.666,1.5.034,2.277a.239.239,0,0,1-.194.093Q62,16.034,58.813,11.007Z" transform="translate(0 29.156)" fill="#b28b67"/><path d="M0,.73,2.773,0q8.862,17.544,28.281,30.817L22.9,42.714C9.586,29.667.868,15.767,0,.73Z" transform="matrix(0.996, 0.087, -0.087, 0.996, 30.636, 1.017)" fill="#ff6500"/><path d="M0,37.294H25.169S16.422,16.01,16.422,1.132L8.83,0C2.863,9.6,1.178,21.429,0,37.294Z" transform="translate(18.251 0)" fill="#dde3e9"/><path d="M0,48.09C2.753,17.01,20.1,0,20.1,0l.006.005,0-.005h.5c.889.031,2.71.11,2.71.11l1.834,5.247c.291,9.6,3.4,38.678,3.4,38.678H12.078q.042,2,.19,4.055Z" transform="translate(6.811)" fill="#ff6500"/><path d="M4.61,16.193H.02A83.65,83.65,0,0,1,1.262,0,88.043,88.043,0,0,0,2.369,9.057a22.849,22.849,0,0,0,2.24,7.135Z" transform="translate(18.871 27.971)" fill="rgba(0,0,0,0.1)"/><path d="M0,3.785,8.135,0V3.785Z" transform="translate(22.537 30.238)" fill="rgba(255,255,255,0.2)"/></g></g></g><g transform="translate(-1645.738 -835)"><circle cx="18.5" cy="18.5" r="18.5" transform="translate(-0.262)" fill="#f2f2f2"/><circle cx="1" cy="1" r="1" transform="translate(17.738 3)" fill="rgba(0,0,0,0.1)"/><ellipse cx="1" cy="0.5" rx="1" ry="0.5" transform="translate(2.738 18)" fill="rgba(0,0,0,0.1)"/><ellipse cx="1" cy="0.5" rx="1" ry="0.5" transform="translate(31.738 18)" fill="rgba(0,0,0,0.1)"/><circle cx="1" cy="1" r="1" transform="translate(17.738 32)" fill="rgba(0,0,0,0.1)"/><path d="M.7,0l.7,12.237H0Z" transform="translate(17.83 5.943)" fill="#afb9c5"/><path d="M.7,0l.7,8.391H0Z" transform="translate(25.212 24.223) rotate(135)" fill="#afb9c5"/><circle cx="1.5" cy="1.5" r="1.5" transform="translate(16.738 17)" fill="#c5cfd6"/></g><g transform="translate(-1534.459 -754.558)"><g transform="translate(6.018 0)"><path d="M6.347.045A4.426,4.426,0,0,1,8.593.282c1.482.629,1.9,2.38,1.883,3.8-.022,1.532-.347,3.2.817,4.439.535.567,1.2,1,1.727,1.58a7.466,7.466,0,0,1,1.329,2.083,6.11,6.11,0,0,1,.345,4.494c-.482,1.287-1.7,2.449-1.434,3.912.274,1.527,1.813,2.694,2.775,3.831a8.942,8.942,0,0,1,2.257,4.62,6.064,6.064,0,0,1-1.627,4.476,11.466,11.466,0,0,1-8.676,3.633,7.964,7.964,0,0,1-4.161-.812,2.293,2.293,0,0,1-.786-.85,2.77,2.77,0,0,0-.76-.761A4.513,4.513,0,0,1,.835,32.8C-.353,29.857.6,26.221,2.258,23.612a2.393,2.393,0,0,0,.525-1.95,7.523,7.523,0,0,0-1.124-2.125A17.09,17.09,0,0,1,.405,17.553a4.5,4.5,0,0,1-.388-2.326,7.911,7.911,0,0,1,1.7-4.15c.9-1.179,1.948-2.307,1.95-3.852,0-1.637-1.092-3.094-.626-4.758A3.172,3.172,0,0,1,4.251.657,4.915,4.915,0,0,1,6.347.045Z" transform="translate(0 0)" fill="#dde3e9"/><path d="M.363.308A.377.377,0,0,1,.843.013c.27.076.265.328.258.553A7.433,7.433,0,0,0,1.345,2.6a36.187,36.187,0,0,0,1.49,4.021,7.319,7.319,0,0,1,.446,4.138c-.28,1.336-.719,2.637-1,3.975a6.918,6.918,0,0,0-.136,3.6,17.283,17.283,0,0,0,1.775,3.077,14.505,14.505,0,0,1,1.83,6.884,12.872,12.872,0,0,1-.257,3.356,3.51,3.51,0,0,1-.895,1.928.62.62,0,0,1-.89-.027c-.2-.28-.024-.714.039-1.013A15.358,15.358,0,0,0,4,28.609a14.184,14.184,0,0,0-.614-3.757,12.715,12.715,0,0,0-1.6-3.127,9.985,9.985,0,0,1-1.661-3.2,7.54,7.54,0,0,1,.255-3.627c.327-1.255.754-2.474,1.2-3.695a6.483,6.483,0,0,0,.346-3.561C1.457,5.179.2,2.87.363.308Z" transform="translate(5.495 2.355)" fill="#c5cfd6"/></g><g transform="translate(8.373 2.616)"><path d="M23.782.414a5.623,5.623,0,0,1,2.51,1.448c1.406,1.515.974,3.805.2,5.478-.835,1.8-2.1,3.61-1.388,5.675.328.95.88,1.81,1.191,2.766a9.647,9.647,0,0,1,.458,3.154,7.979,7.979,0,0,1-1.971,5.495c-1.246,1.271-3.284,2.014-3.75,3.881-.486,1.948.7,4.129,1.23,5.975a11.591,11.591,0,0,1,.205,6.637,7.92,7.92,0,0,1-4.274,4.447,14.686,14.686,0,0,1-12.1-.217,10.12,10.12,0,0,1-4.451-3.126,2.947,2.947,0,0,1-.473-1.414,3.556,3.556,0,0,0-.49-1.3,5.819,5.819,0,0,1-.676-3.041c.161-4.093,3.2-7.9,6.525-10.122a3.128,3.128,0,0,0,1.647-2.033,9.743,9.743,0,0,0-.2-3.1,22.085,22.085,0,0,1-.422-3,5.873,5.873,0,0,1,.774-2.952,10.331,10.331,0,0,1,4.192-4.022c1.674-.928,3.5-1.715,4.323-3.541.868-1.935.354-4.227,1.781-5.953A4.127,4.127,0,0,1,21,.048,6.276,6.276,0,0,1,23.782.414Z" transform="translate(0 0)" fill="#dde3e9"/><path d="M13.514.212a.481.481,0,0,1,.716-.1c.276.231.138.527.012.79a9.738,9.738,0,0,0-.78,2.538A47.4,47.4,0,0,0,13.1,8.985a9.584,9.584,0,0,1-1.646,5.135C10.427,15.555,9.232,16.866,8.2,18.3a9.044,9.044,0,0,0-2.044,4.189,22.583,22.583,0,0,0,.464,4.573,19,19,0,0,1-1.465,9.111,16.82,16.82,0,0,1-2.058,3.84,4.541,4.541,0,0,1-2.056,1.815.79.79,0,0,1-1.026-.5c-.085-.436.346-.859.576-1.18A20.071,20.071,0,0,0,2.95,35.636,18.587,18.587,0,0,0,4.2,30.865a16.629,16.629,0,0,0-.234-4.541A13.056,13.056,0,0,1,3.7,21.659,9.852,9.852,0,0,1,5.9,17.5c1.039-1.315,2.178-2.534,3.334-3.749A8.466,8.466,0,0,0,11.5,9.714C12.242,6.554,11.981,3.16,13.514.212Z" transform="translate(8.373 3.401)" fill="#c5cfd6"/></g><g transform="translate(0 14.652)"><path d="M3.481,0A4.979,4.979,0,0,1,7.314,1.977C8.407,3.335,8.628,4.994,9.072,6.612A4.137,4.137,0,0,0,10.34,8.765a6.13,6.13,0,0,0,2.1.84,4.9,4.9,0,0,1,3.082,3.085c.564,1.742-.033,3.5.069,5.265.094,1.621,1.693,2.633,2.979,3.41,1.268.766,2.411,1.484,2.793,2.977a8.518,8.518,0,0,1-.02,4.916c-.934,2.6-3.668,3.752-6.31,3.93-2.4.161-5.412-.092-7.212-1.832A5.122,5.122,0,0,1,6.4,27.409a12.015,12.015,0,0,1,.439-2.664,12.021,12.021,0,0,0,.447-1.869c.167-1.7-1.4-2.023-2.736-2.488A6.51,6.51,0,0,1,.844,17.118a6.224,6.224,0,0,1-.631-4.676,5.459,5.459,0,0,1,1.242-2.185c.255-.277.614-.508.844-.8a1.078,1.078,0,0,0,.094-.942C2.051,7.046.984,5.829.6,4.361A3.546,3.546,0,0,1,1.673.533,3.163,3.163,0,0,1,3.481,0Z" transform="translate(0 0)" fill="#c5cfd6"/><path d="M.873.168c1.635,1.741,2.079,4.1,2.209,6.393a16.613,16.613,0,0,0,.374,3.884A6.524,6.524,0,0,0,5.316,13.1c1.57,1.55,3.321,3.126,3.78,5.37.269,1.317.088,2.677.46,3.979a10.944,10.944,0,0,0,1.66,3.346c.584.8,1.344,1.421,1.982,2.171.195.229.474.566.393.889-.094.379-.576.5-.919.439a4.161,4.161,0,0,1-1.991-1.454,12.527,12.527,0,0,1-1.938-2.658,11.175,11.175,0,0,1-1.257-3.454,18.041,18.041,0,0,0-.582-3.791c-.8-2.04-2.749-3.243-4.156-4.833C1,11.118,1.258,8.653,1.437,6.216a7.3,7.3,0,0,0-.48-4.074C.7,1.676.123,1.241.012.71-.09.224.466-.267.873.168Z" transform="translate(4.71 3.663)" fill="#afb9c5"/></g><path d="M0,0C0,9.958,1.625,15.175,10.2,15.175S20.409,9.958,20.409,0Z" transform="translate(7.326 47.096)" fill="#89c5cc"/></g><g transform="translate(-1669 -760.814)"><g transform="translate(6.08)"><rect width="10" height="3" rx="1.5" transform="translate(4.92 37.814)" fill="#afb9c5"/><path d="M4.134,20a4.133,4.133,0,1,1,0-8.266H6.109A51.863,51.863,0,0,0,8.026,0H9.239a44.881,44.881,0,0,0,1.917,11.733h1.71a4.133,4.133,0,1,1,0,8.266Z" transform="translate(1.92 18.814)" fill="#dde3e9"/><path d="M1.222.444S5.766,0,10.31,0,19.4.444,19.4.444l1.222,21s-5.155.494-10.31.494S0,21.449,0,21.449Z" fill="#c5cfd6"/></g><path d="M27.456,28V5.923H5.544V28H0V0H33V28Z" transform="translate(0 40.814)" fill="#c5cfd6"/></g></g></g></svg>