<?xml version="1.0" encoding="iso-8859-1"?>
<!-- Generator: Adobe Illustrator 18.0.0, SVG Export Plug-In . SVG Version: 6.00 Build 0)  -->
<!DOCTYPE svg PUBLIC "-//W3C//DTD SVG 1.1//EN" "http://www.w3.org/Graphics/SVG/1.1/DTD/svg11.dtd">
<svg version="1.1" id="Capa_1" xmlns="http://www.w3.org/2000/svg" xmlns:xlink="http://www.w3.org/1999/xlink" x="0px" y="0px"
	 viewBox="0 0 298.453 298.453" style="enable-background:new 0 0 298.453 298.453;" xml:space="preserve">
<path d="M274.47,11.691H23.985C10.76,11.691,0,22.45,0,35.674v23.689v142.855v23.685c0,13.225,10.76,23.984,23.985,23.984h92.565
	v21.875H93.017c-4.142,0-7.5,3.358-7.5,7.5c0,4.142,3.358,7.5,7.5,7.5h31.034h50.35h31.034c4.143,0,7.5-3.358,7.5-7.5
	c0-4.142-3.357-7.5-7.5-7.5H181.9v-21.875h92.569c13.225,0,23.983-10.759,23.983-23.984v-23.685V59.364V35.674
	C298.453,22.45,287.694,11.691,274.47,11.691z M23.985,26.691H274.47c4.953,0,8.983,4.03,8.983,8.984v16.189H15V35.674
	C15,30.721,19.031,26.691,23.985,26.691z M283.453,194.719H15V66.864h268.453V194.719z M166.9,271.763h-35.35v-21.875h35.35V271.763
	z M274.47,234.888H174.4h-50.35H23.985c-4.955,0-8.985-4.03-8.985-8.984v-16.185h268.453v16.185
	C283.453,230.858,279.423,234.888,274.47,234.888z"/>
<g>
</g>
<g>
</g>
<g>
</g>
<g>
</g>
<g>
</g>
<g>
</g>
<g>
</g>
<g>
</g>
<g>
</g>
<g>
</g>
<g>
</g>
<g>
</g>
<g>
</g>
<g>
</g>
<g>
</g>
</svg>
