<?xml version="1.0" encoding="iso-8859-1"?>
<!-- Generator: Adobe Illustrator 19.0.0, SVG Export Plug-In . SVG Version: 6.00 Build 0)  -->
<svg version="1.1" id="Layer_1" xmlns="http://www.w3.org/2000/svg" xmlns:xlink="http://www.w3.org/1999/xlink" x="0px" y="0px"
	 viewBox="0 0 512 512" style="enable-background:new 0 0 512 512;" xml:space="preserve">
<g>
	<g>
		<path d="M444.598,0H106.522C94.707,0,83.788,9.003,83.788,20.819v71.883H68.813c-11.815,0-21.393,9.578-21.393,21.393
			c0,11.814,9.578,21.393,21.393,21.393h14.975v51.343H68.813c-11.815,0-21.393,9.578-21.393,21.393s9.578,21.393,21.393,21.393
			h14.975v51.343H68.813c-11.815,0-21.393,9.578-21.393,21.393s9.578,21.393,21.393,21.393h14.975v51.343H68.813
			c-11.815,0-21.393,9.578-21.393,21.393c0,11.814,9.578,21.393,21.393,21.393h14.975v71.425c0,11.815,10.919,22.703,22.733,22.703
			h338.077c11.815,0,19.981-10.889,19.981-22.703V20.819C464.579,9.003,456.413,0,444.598,0z M190.752,469.214h-64.178v-51.343
			h4.992c11.815,0,21.393-9.578,21.393-21.393c0-11.815-9.578-21.393-21.393-21.393h-4.992v-51.343h4.992
			c11.815,0,21.393-9.578,21.393-21.393s-9.578-21.393-21.393-21.393h-4.992v-51.343h4.992c11.815,0,21.393-9.578,21.393-21.393
			s-9.578-21.393-21.393-21.393h-4.992v-51.343h4.992c11.815,0,21.393-9.578,21.393-21.393c0-11.815-9.578-21.393-21.393-21.393
			h-4.992V42.786h64.178V469.214z M421.794,469.214H233.538v-61.326h144.758c11.814,0,21.393-9.578,21.393-21.393
			c0-11.814-9.578-21.393-21.393-21.393H233.538v-44.212h144.758c11.814,0,21.393-9.578,21.393-21.393s-9.578-21.393-21.393-21.393
			H233.538v-44.212h144.758c11.814,0,21.393-9.578,21.393-21.393s-9.578-21.393-21.393-21.393H233.538v-44.212h144.758
			c11.814,0,21.393-9.578,21.393-21.393c0-11.814-9.578-21.393-21.393-21.393H233.538V42.786h188.256V469.214z"/>
	</g>
</g>
<g>
</g>
<g>
</g>
<g>
</g>
<g>
</g>
<g>
</g>
<g>
</g>
<g>
</g>
<g>
</g>
<g>
</g>
<g>
</g>
<g>
</g>
<g>
</g>
<g>
</g>
<g>
</g>
<g>
</g>
</svg>
