<svg id="Capa_1" enable-background="new 0 0 510 510" height="512" viewBox="0 0 510 510" width="512" xmlns="http://www.w3.org/2000/svg"><path d="m464.11 280.5h-23.95v-26.758c14.831-4.08 25.762-17.678 25.762-33.788v-23.078c0-19.324-15.721-35.045-35.045-35.045h-2.793l-1.658-11.439c-5.63-38.909-39.009-67.742-78.265-67.742h-39.953l5.786-20.663c7.202-25.7-12.091-51.167-38.804-51.167h-34.27c-26.689 0-46.014 25.438-38.804 51.165l5.787 20.665h-46.063c-39.313 0-72.643 28.889-78.265 67.739l-1.658 11.442h-2.793c-19.324 0-35.045 15.721-35.045 35.045v23.078c0 16.11 10.93 29.708 25.762 33.788v26.758h-23.951c-25.358 0-45.89 20.532-45.89 45.89 0 25.309 20.586 45.9 45.89 45.9h23.95v71.84c0 30.355 24.7 55.05 55.06 55.05h260.2c30.36 0 55.06-24.695 55.06-55.05v-71.84h23.95c25.362 0 45.89-20.542 45.89-45.9 0-25.304-20.586-45.89-45.89-45.89zm-233.106-226.607c-1.827-6.518 3.025-13.073 9.916-13.073h34.27c6.783 0 11.769 6.46 9.916 13.075l-8.052 28.755h-37.997zm-117.739 100.795c3.468-23.966 24.351-42.039 48.575-42.039h186.32c24.224 0 45.106 18.073 48.575 42.042l1.035 7.14h-285.54zm-39.187 42.188c0-2.782 2.263-5.045 5.045-5.045h351.753c2.782 0 5.045 2.263 5.045 5.045v23.078c0 2.782-2.263 5.045-5.045 5.045 0 0-349.44 0-351.753 0-2.782 0-5.045-2.263-5.045-5.045zm-28.188 145.414c-8.762 0-15.89-7.133-15.89-15.9 0-8.777 7.114-15.89 15.89-15.89h23.95v31.79zm364.27 101.84c0 13.813-11.242 25.05-25.06 25.05h-260.2c-13.818 0-25.06-11.237-25.06-25.05v-189.13h310.32zm53.95-101.84h-23.95v-31.79h23.95c8.762 0 15.89 7.128 15.89 15.89 0 8.766-7.094 15.9-15.89 15.9z"/><path d="m297.5 286.522h-85c-24.813 0-45 20.187-45 45v61.136c0 24.813 20.187 45 45 45h85c24.813 0 45-20.187 45-45v-61.136c0-24.813-20.187-45-45-45zm15 106.136c0 8.271-6.729 15-15 15h-85c-8.271 0-15-6.729-15-15v-61.136c0-8.271 6.729-15 15-15h85c8.271 0 15 6.729 15 15z"/><path d="m266.5 347.09h-23c-8.284 0-15 6.716-15 15s6.716 15 15 15h23c8.284 0 15-6.716 15-15s-6.716-15-15-15z"/></svg>