<svg xmlns="http://www.w3.org/2000/svg" width="29.44" height="23.924" viewBox="0 0 29.44 23.924"><path d="M27.706,9.994c.013.259.018.522.018.781,0,7.984-6.075,17.187-17.184,17.187a17.082,17.082,0,0,1-9.259-2.715,12.263,12.263,0,0,0,1.44.085,12.122,12.122,0,0,0,7.5-2.584A6.047,6.047,0,0,1,4.58,18.554a6.154,6.154,0,0,0,1.136.106,6.044,6.044,0,0,0,1.592-.21,6.047,6.047,0,0,1-4.845-5.925V12.45a6.021,6.021,0,0,0,2.736.757A6.046,6.046,0,0,1,3.33,5.141a17.146,17.146,0,0,0,12.45,6.312,6.12,6.12,0,0,1-.155-1.378A6.043,6.043,0,0,1,26.073,5.944a12.148,12.148,0,0,0,3.835-1.466,6.061,6.061,0,0,1-2.656,3.341,12.1,12.1,0,0,0,3.469-.95,12.22,12.22,0,0,1-3.014,3.125Z" transform="translate(-1.281 -4.038)" fill="#7f7f7f"/></svg>